<svg xmlns="http://www.w3.org/2000/svg" width="35.93" height="32" viewBox="0 0 1024 1024">
  <g class="layer">
    <circle cx="512" cy="512" fill="#13aa52" r="512"/>
    <path d="m648.86,449.44c-32.34,-142.73 -108.77,-189.66 -117,-207.59c-9,-12.65 -18.12,-35.15 -18.12,-35.15c-0.15,-0.38 -0.39,-1.05 -0.67,-1.7c-0.93,12.65 -1.41,17.53 -13.37,30.29c-18.52,14.48 -113.54,94.21 -121.27,256.37c-7.21,151.24 109.25,241.36 125,252.85l1.79,1.27l0,-0.11c0.1,0.76 5,36 8.44,73.34l12.34,0a726.68,726.68 0 0 1 13,-78.53l1,-0.65a204.48,204.48 0 0 0 20.11,-16.45l0.72,-0.65c33.48,-30.93 93.67,-102.47 93.08,-216.53a347.07,347.07 0 0 0 -5.05,-56.76zm-136.51,209.68s0,-212.12 7,-212.08c5.46,0 12.53,273.61 12.53,273.61c-9.72,-1.17 -19.53,-45.03 -19.53,-61.53z" fill="#fff"/>
  </g>
</svg>
